<?xml version="1.0" encoding="utf-8"?>
<!-- Generator: Adobe Illustrator 24.3.0, SVG Export Plug-In . SVG Version: 6.00 Build 0)  -->
<svg version="1.1" id="Layer_1" xmlns="http://www.w3.org/2000/svg" xmlns:xlink="http://www.w3.org/1999/xlink" x="0px" y="0px"
	 viewBox="0 0 2676.7 1865.87" style="enable-background:new 0 0 2676.7 1865.87;" xml:space="preserve">
<style type="text/css">
	.st0{fill:#FFFFFF;}
	.st1{fill:#16C3E2;}
	.st2{fill:url(#SVGID_1_);}
	.st3{fill:url(#SVGID_2_);}
</style>
<g>
	<path class="st0" d="M277.9,1015.09l87.5-118.09l-82.23-115.45h60.52l52.96,75l52.96-75h60.52l-81.9,115.45l87.17,118.09h-60.85
		l-57.89-77.3l-57.56,77.3H277.9z"/>
	<path class="st0" d="M532.82,850.63h49.67v10.2c8.88-7.89,22.04-13.82,38.81-13.82c48.68,0,80.92,39.8,80.92,85.85
		s-32.23,85.85-80.92,85.85c-16.78,0-29.93-5.92-38.81-14.14v74.34h-49.67V850.63z M650.9,932.86c0-22.04-14.8-40.79-37.17-40.79
		c-15.46,0-24.34,6.58-31.25,15.46v50.33c6.91,9.21,15.79,15.79,31.25,15.79C636.1,973.65,650.9,954.9,650.9,932.86z"/>
	<path class="st0" d="M723.59,932.86c0-48.68,36.51-85.85,86.51-85.85c43.42,0,81.9,26.97,81.9,80.26c0,4.28,0,9.54-0.99,17.43
		h-119.4c2.96,19.74,21.38,28.95,40.13,28.95c19.41,0,33.55-9.21,39.8-18.75l36.84,27.63c-15.46,22.04-42.76,36.18-77.3,36.18
		C762.73,1018.71,723.59,985.82,723.59,932.86z M842.66,912.14c-4.28-17.43-19.41-24.67-33.88-24.67
		c-14.47,0-31.58,6.58-35.85,24.67H842.66z"/>
	<path class="st0" d="M923.25,850.63h49.67v18.42c5.26-11.51,19.74-20.39,36.51-20.39c8.88,0,16.45,1.97,20.06,3.29l-7.57,46.38
		c-1.32-0.99-6.91-1.97-13.82-1.97c-11.51,0-26.97,3.29-35.2,14.8v103.94h-49.67V850.63z"/>
	<path class="st0" d="M1076.53,954.9v-61.18h-39.47v-43.09h39.47v-50h49.67v50h49.34v43.09h-49.34v50.98
		c0,19.74,7.89,27.3,24.67,27.3c8.22,0,17.43-2.63,22.37-5.26l14.8,40.46c-7.57,4.28-27.63,9.87-44.41,9.87
		C1104.16,1017.07,1076.53,997,1076.53,954.9z"/>
	<path class="st0" d="M1751.54,806.77c0-17.1,14.14-30.92,30.92-30.92c17.43,0,31.25,13.82,31.25,30.92
		c0,17.1-13.81,30.92-31.25,30.92C1765.69,837.69,1751.54,823.87,1751.54,806.77z M1757.79,853.48h49.67v164.46h-49.67V853.48z"/>
	<path class="st0" d="M1848.25,853.48h49.67v11.84c10.2-9.54,25.33-15.46,42.76-15.46c42.76,0,66.77,29.93,66.77,74.34v93.74h-49.67
		v-85.19c0-22.37-8.55-37.83-27.96-37.83c-12.83,0-25,6.25-31.91,15.13v107.89h-49.67V853.48z"/>
	<path class="st0" d="M2036.39,935.71c0-46.05,32.23-85.85,80.92-85.85c16.78,0,29.93,5.92,38.81,13.82v-85.85h49.67v240.12h-49.67
		v-10.53c-8.88,8.22-22.04,14.14-38.81,14.14C2068.62,1021.56,2036.39,981.76,2036.39,935.71z M2156.12,960.71v-50.33
		c-6.91-8.88-15.79-15.46-31.25-15.46c-22.37,0-37.17,18.75-37.17,40.79c0,22.04,14.8,40.79,37.17,40.79
		C2140.33,976.5,2149.21,969.92,2156.12,960.71z"/>
	<path class="st0" d="M2239.66,979.13l72.04-80.92h-71.05v-44.73h135.52v39.14l-72.04,80.59h74.67v44.73h-139.14V979.13z"/>
	<path class="st1" d="M1576.18,1240.71c-14.35,3.69-28.98,6.67-43.85,8.91c-21.6,3.25-43.71,4.94-66.23,4.94
		c-21.91,0-43.46-1.6-64.52-4.68c-15.14-2.22-30.02-5.21-44.62-8.93l28.17-50.72c5.45,1.15,10.93,2.19,16.45,3.11
		c20.98,3.5,42.54,5.33,64.52,5.33c22.58,0,44.7-1.92,66.23-5.62c4.93-0.85,9.84-1.79,14.71-2.81L1576.18,1240.71z"/>
	<linearGradient id="SVGID_1_" gradientUnits="userSpaceOnUse" x1="1299.948" y1="972.6089" x2="1644.1949" y2="635.0577">
		<stop  offset="0.023" style="stop-color:#95B6FA"/>
		<stop  offset="0.1931" style="stop-color:#BC40D9"/>
		<stop  offset="0.4151" style="stop-color:#FF5D76"/>
		<stop  offset="0.6448" style="stop-color:#FF42A9"/>
		<stop  offset="1" style="stop-color:#FEC3AB"/>
	</linearGradient>
	<path class="st2" d="M1707.17,809.69c0,74.8-34.07,141.65-87.54,185.86v-75.4c22.41-31.08,35.6-69.22,35.6-110.46
		c0-27.31-5.79-53.27-16.2-76.71c-3.54-7.96-7.61-15.63-12.17-22.97c-16.22-26.1-38.62-47.96-65.14-63.54
		c-28.05-16.47-60.73-25.91-95.61-25.91c-36.05,0-69.76,10.09-98.44,27.6c-26.33,16.08-48.42,38.41-64.21,64.94v0.01
		c-5.67,9.54-10.54,19.62-14.48,30.14c-7.76,20.67-12,43.05-12,66.43c0,41.76,13.53,80.35,36.45,111.64v74.91
		c-53.96-44.21-88.39-111.36-88.39-186.55c0-44.07,11.83-85.38,32.48-120.93c5.17-8.9,10.89-17.44,17.12-25.57
		c18.36-23.96,41.12-44.36,67.05-60.02c36.32-21.94,78.89-34.55,124.42-34.55c44.03,0,85.31,11.8,120.83,32.43
		c26.14,15.16,49.16,35.1,67.88,58.62c5.01,6.27,9.69,12.8,14.05,19.56C1693.11,716.83,1707.17,761.62,1707.17,809.69z"/>
	<linearGradient id="SVGID_2_" gradientUnits="userSpaceOnUse" x1="1314.5276" y1="1142.1122" x2="1624.9008" y2="1040.6599">
		<stop  offset="0" style="stop-color:#806CFB"/>
		<stop  offset="0.2615" style="stop-color:#5A8CFA"/>
		<stop  offset="0.5078" style="stop-color:#2BB2E3"/>
		<stop  offset="0.7587" style="stop-color:#12C7E1"/>
		<stop  offset="1" style="stop-color:#21D7CE"/>
	</linearGradient>
	<path class="st3" d="M1631.8,1105.65c-4.01,2.25-8.06,4.41-12.17,6.5c-11.5,5.86-23.38,11.07-35.6,15.59
		c-11.36,4.22-23.02,7.85-34.93,10.84c-5.54,1.4-11.13,2.66-16.77,3.77c-3.88,0.78-7.79,1.48-11.72,2.11
		c-17.74,2.88-35.95,4.36-54.51,4.36c-18.89,0-37.42-1.55-55.47-4.52c-3.03-0.49-6.04-1.03-9.05-1.61
		c-4.49-0.86-8.96-1.82-13.38-2.87c-13.09-3.07-25.88-6.9-38.33-11.44c-12.51-4.56-24.68-9.84-36.45-15.79
		c-2.74-1.39-5.46-2.81-8.16-4.26l8.16-14.69l17.07-30.73c6.32,3.4,12.79,6.56,19.39,9.48c16.48,7.31,33.78,13.11,51.71,17.22
		c4.31,0.99,8.64,1.88,13.02,2.67c7.6,1.38,15.32,2.46,23.12,3.22c9.33,0.92,18.8,1.39,28.37,1.39c8.89,0,17.67-0.41,26.35-1.2
		c9.97-0.9,19.8-2.32,29.45-4.23c3.5-0.68,6.98-1.43,10.43-2.26c17.95-4.23,35.23-10.15,51.7-17.57
		c7.44-3.35,14.71-7.01,21.79-10.96l13.81,23.92L1631.8,1105.65z"/>
	<path class="st0" d="M1584.03,788.56v231.42c-0.43,0.24-0.85,0.48-1.28,0.71c-15.81,8.76-32.69,15.79-50.42,20.84V880.26
		l-15.04,27.08l-32.55,58.63h-35.3l-33.2-57.51l-14.66-25.38v51.78l-0.98,1.76l0.98,1.69v103.73
		c-17.07-4.73-33.38-11.28-48.71-19.46c-1-0.53-2.01-1.08-3-1.63V793.5l-2.85-4.94h48.64c0.19,0.6,0.38,1.2,0.59,1.79
		c0.1,0.3,0.21,0.59,0.31,0.88c0.1,0.28,0.21,0.58,0.31,0.86c0.01,0.04,0.02,0.07,0.04,0.11c0.09,0.23,0.17,0.47,0.26,0.7
		c0.09,0.24,0.19,0.48,0.28,0.72c0.14,0.35,0.28,0.69,0.42,1.04c0.1,0.23,0.19,0.46,0.29,0.68c0.11,0.26,0.21,0.51,0.33,0.75
		c0.22,0.51,0.45,1,0.68,1.5c0.74,1.58,1.54,3.13,2.39,4.66c10.85,19.43,30.24,33.45,53.08,36.99c3.72,0.58,7.55,0.88,11.43,0.88
		c4.03,0,7.99-0.32,11.85-0.95c23.91-3.84,43.98-19.18,54.38-40.16c0.19-0.39,0.38-0.78,0.57-1.17c0.21-0.46,0.43-0.9,0.63-1.36
		c0.09-0.21,0.18-0.41,0.27-0.61c0.13-0.3,0.26-0.6,0.38-0.9c0.16-0.36,0.31-0.73,0.45-1.09c0.17-0.42,0.33-0.84,0.5-1.27
		c0.51-1.33,0.99-2.69,1.42-4.06H1584.03z"/>
</g>
</svg>
